<svg xmlns="http://www.w3.org/2000/svg" width="160.003" height="79.992" viewBox="0 0 160.003 79.992">
  <g id="Group_45" data-name="Group 45" transform="translate(-9384.301 -4417.86)">
    <g id="Group_44" data-name="Group 44">
      <path id="crown" d="M9433.136,4428.633a1.439,1.439,0,0,1-.038.423l-3.139,12.558a1.427,1.427,0,0,1-1.376,1.081l-18.812.1h-18.815a1.427,1.427,0,0,1-1.383-1.082l-3.137-12.6a1.42,1.42,0,0,1-.036-.435,3,3,0,0,1,1.788-5.726l0,0a3,3,0,0,1,1.006,5.178l3.925,3.961a5.321,5.321,0,0,0,7.523.037l.009-.008a5.513,5.513,0,0,0,.5-.572l6.451-8.561a3,3,0,0,1,4.222-4.254l0,0a3,3,0,0,1,.05,4.2l.006.007,6.4,8.584a5.345,5.345,0,0,0,4.263,2.14,5.287,5.287,0,0,0,3.764-1.561l3.949-3.956a3,3,0,0,1,3.745-4.677l0,0a3,3,0,0,1-.882,5.164Z" fill="#b8081b"/>
      <g id="shield-2">
        <path id="Path_1" data-name="Path 1" d="M9431.358,4445.483a2.117,2.117,0,0,0-1.553-.656H9390.1a2.239,2.239,0,0,0-2.206,2.21v26.513a15.88,15.88,0,0,0,1.155,5.886,21.942,21.942,0,0,0,2.863,5.179,32.069,32.069,0,0,0,4.066,4.4,47.621,47.621,0,0,0,4.361,3.556q2,1.415,4.171,2.675t3.085,1.709q.913.45,1.465.69a2.046,2.046,0,0,0,1.793,0q.552-.24,1.465-.69t3.086-1.709q2.168-1.26,4.171-2.675a47.608,47.608,0,0,0,4.36-3.556,32.076,32.076,0,0,0,4.067-4.4,22.078,22.078,0,0,0,2.862-5.179,15.9,15.9,0,0,0,1.154-5.886v-26.514A2.127,2.127,0,0,0,9431.358,4445.483Z" fill="#238550"/>
      </g>
      <path id="Subtraction_2" data-name="Subtraction 2" d="M9423.614,4479h-10.476v-1.1c1.722-.122,2.586-.231,3.083-.714s.593-1.355.593-3v-7.826h-9.2v-1.644h9.194v-6.341c0-1.628-.085-2.488-.537-2.975s-1.246-.6-2.825-.743v-1.1h10.2v1.1c-1.657.141-2.489.261-2.96.743s-.557,1.345-.557,2.975v15.809c0,1.649.085,2.52.552,3s1.29.593,2.928.714v1.1ZM9407,4479h-10.279v-1.1c1.617-.121,2.43-.231,2.893-.714s.547-1.355.547-3v-15.817c0-1.677-.085-2.508-.557-2.99-.49-.5-1.4-.593-2.959-.729v-1.1h10.12v1.1c-1.54.142-2.312.262-2.755.743s-.527,1.349-.527,2.975v6.341h3.409v1.644h-3.409v7.83c0,1.636.085,2.5.557,2.99.5.514,1.451.618,2.959.729v1.1Z" fill="#fff"/>
      <path id="Path_5" data-name="Path 5" d="M9416.226,4470.732a2.649,2.649,0,0,1-1.338-.875,16.192,16.192,0,0,1-1.506-1.936c-.558-.837-1.338-2.085-1.655-2.7a3.393,3.393,0,0,0,2.36-3.183,2.788,2.788,0,0,0-1.226-2.436,5.235,5.235,0,0,0-2.974-.633h-4.613v.522c1.449.13,1.6.186,1.6,1.768v7.482c0,1.583-.169,1.693-1.691,1.8v.522h4.893v-.522c-1.487-.113-1.655-.225-1.655-1.808v-2.966h.592c.966,0,1.283.224,1.6.744.557.912,1.227,2.066,1.877,2.978a3.387,3.387,0,0,0,3.011,1.693c.223.019.428.019.65.019Zm-7.806-5.565v-4.579c0-.5.074-.726.2-.819a1.809,1.809,0,0,1,1-.186,2.517,2.517,0,0,1,2.733,2.281v0a2.379,2.379,0,0,1,0,.472,2.673,2.673,0,0,1-1.021,2.308,3.078,3.078,0,0,1-2.029.522Z" fill="#fff"/>
      <g id="shield-2-2">
        <path id="Path_1-2" data-name="Path 1-2" d="M9429.141,4448.159a1.891,1.891,0,0,0-1.389-.588h-35.6a2.007,2.007,0,0,0-1.979,1.981v23.77a14.237,14.237,0,0,0,1.035,5.278,19.637,19.637,0,0,0,2.565,4.643,28.561,28.561,0,0,0,3.646,3.947,42.486,42.486,0,0,0,3.909,3.188q1.792,1.269,3.739,2.4t2.766,1.533q.817.4,1.313.618a1.818,1.818,0,0,0,1.605,0q.492-.216,1.313-.618t2.766-1.533q1.944-1.129,3.738-2.4a42.763,42.763,0,0,0,3.91-3.188,28.8,28.8,0,0,0,3.646-3.947,19.835,19.835,0,0,0,2.566-4.643,14.256,14.256,0,0,0,1.034-5.278v-23.771A1.906,1.906,0,0,0,9429.141,4448.159Z" fill="none" stroke="#fff" stroke-width="2"/>
      </g>
      <path id="clover" d="M9411.813,4434.438a2.249,2.249,0,1,0-4.271-1.412v0a3.179,3.179,0,0,1-2.163,3.742v0a2.249,2.249,0,0,0,2.329,2.166h0a2.252,2.252,0,0,0,1.416-.572l-.484,1.643h2.06l-.489-1.66a2.244,2.244,0,0,0,3.17-.139l0,0a2.251,2.251,0,0,0-1.568-3.768Z" fill="#fff"/>
      <path id="diamond" d="M9428.354,4435.529l-2.018,2.356,1.291,2.822,2.018-2.356Z" fill="#fff"/>
      <path id="diamond-2" d="M9392.116,4435.137l-1.191,2.867,2.1,2.284,1.19-2.867Z" fill="#fff"/>
      <g id="RUMMY">
        <g id="Group_1" data-name="Group 1">
          <path id="Path_1-2-2" data-name="Path 1-2-2" d="M9442.141,4459.367c.058.008.112.012.166.016s.14.005.253.005a1.217,1.217,0,0,0,1.187-.58,8.854,8.854,0,0,0,.3-3.074V4453.8l.043-2.408q.01-.764.017-1.516t.006-1.806a3.059,3.059,0,0,0-.328-1.752,1.533,1.533,0,0,0-1.229-.4h-.226v-.946q1.148.052,1.9.08t1.31.027q.8,0,1.975-.054t1.59-.053a7.042,7.042,0,0,1,4.2,1.107,3.69,3.69,0,0,1,.768,5.246,6.022,6.022,0,0,1-2.3,1.655l2.1,2.967a16.2,16.2,0,0,0,2.2,2.945,2.222,2.222,0,0,0,1.475.6,1.047,1.047,0,0,0,.123-.011,1.044,1.044,0,0,1,.123-.01v.9c-.436.035-.815.062-1.137.081s-.605.026-.849.026a5.8,5.8,0,0,1-2.05-.29,3.32,3.32,0,0,1-1.331-1q-.278-.335-1.374-2.146t-1.922-3.1q-.667.021-1.18.032t-1,.011v2.859a4.066,4.066,0,0,0,.322,2.069,1.521,1.521,0,0,0,1.266.425h.3v.968q-.88-.054-1.76-.081t-1.8-.026c-.2,0-.5,0-.887.017s-1.139.04-2.248.091Zm4.809-6.783q.568.031.966.049c.265.009.486.015.665.015.222,0,.457-.006.708-.015s.511-.028.784-.049a4.058,4.058,0,0,0,1.368-1.37,3.615,3.615,0,0,0,.435-1.8,2.812,2.812,0,0,0-.906-2.176,3.414,3.414,0,0,0-2.41-.834c-.307,0-.588.011-.842.032a7.349,7.349,0,0,0-.746.1q-.01,1.17-.016,2.45t-.014,3.6Z" fill="#fff"/>
          <path id="Path_2" data-name="Path 2" d="M9465.3,4444.974v.967a1.425,1.425,0,0,1-.183-.01,1.648,1.648,0,0,0-1.406.521,6.661,6.661,0,0,0-.322,2.7v2.461q0,2.172.075,3.08a6.076,6.076,0,0,0,.258,1.435,3.573,3.573,0,0,0,1.438,1.962,4.5,4.5,0,0,0,2.533.682,4.878,4.878,0,0,0,2.1-.415,3.4,3.4,0,0,0,1.419-1.255,3.991,3.991,0,0,0,.521-1.489,17.789,17.789,0,0,0,.155-2.735c0-.23,0-.611-.011-1.145s-.011-.952-.01-1.252v-1.129a7.477,7.477,0,0,0-.322-2.848,1.28,1.28,0,0,0-1.234-.581,1.989,1.989,0,0,0-.215.006,1.169,1.169,0,0,1-.139,0v-.957q1,.053,1.658.08t1.133.027q.439,0,1.068-.027t1.637-.08v.967h-.172a2.39,2.39,0,0,0-.955.145.877.877,0,0,0-.451.511,26.929,26.929,0,0,0-.258,4.676c0,.4,0,.7-.011.914v.592a11.525,11.525,0,0,1-.795,5.052,5.211,5.211,0,0,1-2.275,2.129,7.712,7.712,0,0,1-3.5.753,8.236,8.236,0,0,1-3.257-.608,5.087,5.087,0,0,1-3.108-3.66,15.348,15.348,0,0,1-.257-3.268q0-.581.032-2.063t.031-2.376a5.279,5.279,0,0,0-.306-2.338,1.358,1.358,0,0,0-1.207-.457h-.258v-.967q1.213.053,1.97.08t1.3.027q.5,0,1.267-.027T9465.3,4444.974Z" fill="#fff"/>
          <path id="Path_3" data-name="Path 3" d="M9486.562,4455.54l2.813-6.342q.889-2.022,1.18-2.854a4.258,4.258,0,0,0,.29-1.262v-.108c.07,0,.179,0,.322.01q1.641.075,2.361.075.4,0,1.642-.053l.795-.032v.967a2.6,2.6,0,0,0-1.465.279,1.449,1.449,0,0,0-.36,1.172c0,.287.016.765.043,1.436s.069,1.4.118,2.2l.151,2.612q.183,2.859.268,3.79a8.462,8.462,0,0,0,.172,1.23.782.782,0,0,0,.44.511,2.091,2.091,0,0,0,.922.177h.27l-.012.968q-.911-.054-1.771-.081t-1.589-.026c-.279,0-.648.007-1.105.021s-1.144.042-2.061.086v-.968h.332a1.86,1.86,0,0,0,1.218-.3,1.384,1.384,0,0,0,.338-1.064c0-.172,0-.35-.006-.532s-.017-.417-.037-.7l-.44-8.578-3.885,8.8q-.558,1.269-.784,1.929a9.667,9.667,0,0,0-.343,1.263h-1.161a9.281,9.281,0,0,0-.269-.946q-.171-.5-.526-1.344l-3.928-9.449q-.312,3.483-.479,5.847t-.167,3.2a2.5,2.5,0,0,0,.312,1.511,1.612,1.612,0,0,0,1.233.36h.3v.968q-1.053-.066-1.712-.086c-.44-.015-.821-.021-1.144-.021-.172,0-.418,0-.736.017s-.956.04-1.916.091l-.011-.968a.4.4,0,0,1,.075.011c.186.021.315.032.386.032q1.417,0,1.729-3.956.085-1.074.139-1.7l.247-2.579q.129-1.529.2-2.548t.075-1.3a1.457,1.457,0,0,0-.307-1.08,1.786,1.786,0,0,0-1.185-.285h-.28v-.967q.687.042,1.326.064t1.175.021q.429,0,1.8-.054l.88-.032v.086q0,.839,2.513,6.719Q9485.971,4454.144,9486.562,4455.54Z" fill="#fff"/>
          <path id="Path_4" data-name="Path 4" d="M9507.406,4455.54l2.812-6.342q.891-2.022,1.182-2.854a4.318,4.318,0,0,0,.289-1.262v-.108c.071,0,.179,0,.321.01q1.641.075,2.361.075.4,0,1.643-.053l.794-.032v.967a2.6,2.6,0,0,0-1.465.279,1.444,1.444,0,0,0-.358,1.172q0,.431.043,1.436t.116,2.2l.15,2.612q.183,2.859.268,3.79a8.464,8.464,0,0,0,.173,1.23.783.783,0,0,0,.439.511,2.1,2.1,0,0,0,.923.177h.269l-.012.968q-.911-.054-1.77-.081t-1.589-.026c-.279,0-.647.007-1.106.021s-1.145.042-2.06.086v-.968h.332a1.86,1.86,0,0,0,1.218-.3,1.38,1.38,0,0,0,.338-1.064c0-.172,0-.35,0-.532s-.016-.417-.038-.7l-.439-8.578-3.887,8.8q-.558,1.269-.783,1.929a9.713,9.713,0,0,0-.344,1.263h-1.159a8.581,8.581,0,0,0-.268-.946q-.173-.5-.526-1.344l-3.929-9.449q-.312,3.483-.478,5.847t-.167,3.2a2.489,2.489,0,0,0,.311,1.511,1.613,1.613,0,0,0,1.234.36h.3v.968q-1.053-.066-1.712-.086c-.439-.015-.82-.021-1.144-.021-.172,0-.417,0-.735.017s-.957.04-1.916.091l-.01-.968a.368.368,0,0,1,.073.011c.188.021.315.032.387.032q1.417,0,1.728-3.956c.057-.716.1-1.283.139-1.7l.247-2.579q.129-1.529.2-2.548t.074-1.3a1.466,1.466,0,0,0-.3-1.08,1.8,1.8,0,0,0-1.187-.285h-.279v-.967q.686.042,1.326.064t1.175.021q.429,0,1.8-.054l.88-.032v.086q0,.839,2.511,6.719Q9506.814,4454.144,9507.406,4455.54Z" fill="#fff"/>
          <path id="Path_5-2" data-name="Path 5-2" d="M9517.913,4444.974q1.169.052,1.985.08t1.448.027q.463,0,1.17-.027t1.953-.08v.967a3.217,3.217,0,0,0-1.052.124.424.424,0,0,0-.332.4,2.769,2.769,0,0,0,.429,1.162c.079.142.141.254.183.333l2.372,4.246.719-1.247a23.89,23.89,0,0,0,2.275-4.428.482.482,0,0,0-.247-.452,1.636,1.636,0,0,0-.773-.14h-.236v-.967c.628.035,1.143.062,1.54.08s.731.026,1,.027c.286,0,.636-.009,1.047-.027s.929-.045,1.552-.08v.935a.7.7,0,0,1-.1-.005,1.438,1.438,0,0,0-.161,0q-1.04,0-2.5,2.384-.322.546-.515.848l-2.877,4.618.022,3.438a3.227,3.227,0,0,0,.343,1.771,1.564,1.564,0,0,0,1.255.4,1.877,1.877,0,0,0,.215-.011,1.847,1.847,0,0,1,.226-.01v.978q-1.181-.066-2.1-.1c-.613-.023-1.135-.034-1.567-.032q-.58,0-2.317.075c-.487.022-.87.039-1.149.054v-.978a2.417,2.417,0,0,1,.242.01,2.173,2.173,0,0,0,.22.011,1.587,1.587,0,0,0,1.283-.42,3.021,3.021,0,0,0,.36-1.708l.021-3.394-3.585-6q-.075-.129-.226-.376-.933-1.536-1.813-1.536a1.682,1.682,0,0,0-.187.006.864.864,0,0,1-.123.005Z" fill="#fff"/>
        </g>
      </g>
      <g id="_HALL" data-name=" HALL">
        <g id="Group_2" data-name="Group 2">
          <path id="Path_6" data-name="Path 6" d="M9441.218,4465.518q.467.015,1.354.065,2.477.127,3.364.129,1.11,0,3.992-.146l.982-.048v1.45h-.37a2.182,2.182,0,0,0-1.875.678q-.492.677-.491,3.612v4.256q1.352.046,2.672.072t2.608.024q1.206,0,2.721-.024t3.333-.072v-4.256q0-2.936-.482-3.612a2.187,2.187,0,0,0-1.885-.678h-.369v-1.45q1.544.1,2.781.145t2.2.049q.883,0,3.357-.129.87-.051,1.353-.065v1.435a2.034,2.034,0,0,1-.217-.008c-.08-.008-.186-.008-.315-.008a1.777,1.777,0,0,0-1.722.83,9.32,9.32,0,0,0-.451,3.681q0,.483.017,1.74t.016,2.063v3.4q0,.966-.016,2.425t-.017,1.957a7.4,7.4,0,0,0,.467,3.3,1.908,1.908,0,0,0,1.771.765q.242,0,.363-.008c.08-.006.152-.013.217-.024v1.467q-.548-.033-1.545-.08-2.492-.113-3.31-.113c-.608,0-1.343.015-2.2.047s-1.84.08-2.944.146v-1.467c.086,0,.192,0,.322.015s.22.016.273.016a2.072,2.072,0,0,0,1.86-.724q.473-.724.474-3.735V4478q-1.626-.033-3-.048t-2.7-.016q-2.285,0-3.453.016t-2.182.048v4.635q0,3.009.475,3.735a2.07,2.07,0,0,0,1.859.724c.055,0,.147-.005.282-.016s.238-.015.314-.015v1.467q-1.676-.1-2.963-.146t-2.174-.047q-.836,0-3.316.113-1,.049-1.562.08v-1.467c.075.011.156.018.242.024s.214.008.386.008a1.8,1.8,0,0,0,1.747-.845,9.135,9.135,0,0,0,.458-3.65q0-.483-.016-1.787t-.017-2.127v-3.431q0-.9.017-2.289t.016-1.869a7.737,7.737,0,0,0-.467-3.367,1.816,1.816,0,0,0-1.706-.789c-.14,0-.247,0-.322.008s-.145.008-.21.008Z" fill="#fff"/>
          <path id="Path_7" data-name="Path 7" d="M9478.908,4465.4h3.928q2.317,6.8,4.42,12.5t2.938,7.587a2.609,2.609,0,0,0,.894,1.218,2.546,2.546,0,0,0,1.441.362h.354v1.451q-2.045-.1-3.139-.129t-1.835-.032c-.474,0-1.084.01-1.835.032s-1.84.064-3.269.129v-1.451h.29a3.514,3.514,0,0,0,1.724-.29,1.135,1.135,0,0,0,.45-1.032,3.05,3.05,0,0,0-.057-.533,7.553,7.553,0,0,0-.232-.854l-1.32-3.9-2.415-.041q-1.5-.024-1.868-.024-.693,0-2.785.047c-.5.012-.9.017-1.175.017l-.065.161a18.981,18.981,0,0,0-1.577,4.869,1.44,1.44,0,0,0,.475,1.209,2.583,2.583,0,0,0,1.57.371h.289v1.451q-1.837-.1-2.85-.129t-1.675-.032c-.365,0-.845.01-1.441.032s-1.463.064-2.6.129v-1.451a3.666,3.666,0,0,0,1.851-.4,3.163,3.163,0,0,0,1.177-1.355q.69-1.257,3.123-7.03T9478.908,4465.4Zm.885,3.87-3.509,8.916c.408.012.84.019,1.3.025s1.065.008,1.827.008q1.32,0,2.061-.008t1.385-.025Z" fill="#fff"/>
          <path id="Path_8" data-name="Path 8" d="M9494.862,4465.518q1.37.081,2.585.121t2.165.04q.981,0,2.2-.04t2.81-.121v1.45c-.064,0-.156,0-.273-.015s-.2-.016-.241-.016a1.961,1.961,0,0,0-1.835.805,8.508,8.508,0,0,0-.483,3.645q0,.418.016,1.515t.017,1.79l.031,11.32.1.016q2.076.129,3.14.129,4.04,0,5.3-.838a6.058,6.058,0,0,0,2.061-3.193l1.48.451q-.5,1.467-.893,2.951t-.685,3q-2.851-.1-5.3-.146t-4.476-.047q-2.013,0-4.05.047t-4.049.146v-1.419h.45a3.978,3.978,0,0,0,1.336-.176,1.224,1.224,0,0,0,.677-.581q.45-.888.482-6.627c.01-.5.017-.871.017-1.129l.031-3.516q0-.71.017-1.862t.016-1.6a9.573,9.573,0,0,0-.474-3.789,1.849,1.849,0,0,0-1.8-.887h-.37Z" fill="#fff"/>
          <path id="Path_9" data-name="Path 9" d="M9515.405,4465.518q1.368.081,2.584.121t2.165.04c.653,0,1.388-.014,2.2-.04s1.748-.067,2.81-.121v1.45c-.064,0-.156,0-.273-.015s-.2-.016-.241-.016a1.961,1.961,0,0,0-1.835.805,8.508,8.508,0,0,0-.483,3.645q0,.418.016,1.515t.017,1.79l.031,11.32.1.016q2.077.129,3.14.129,4.04,0,5.3-.838a6.064,6.064,0,0,0,2.061-3.193l1.48.451q-.5,1.467-.894,2.951t-.684,3q-2.851-.1-5.3-.146t-4.476-.047q-2.013,0-4.05.047t-4.049.146v-1.419h.45a3.959,3.959,0,0,0,1.337-.176,1.224,1.224,0,0,0,.677-.581q.45-.888.482-6.627c.01-.5.017-.871.017-1.129l.031-3.516q0-.71.017-1.862t.016-1.6a9.556,9.556,0,0,0-.474-3.789,1.849,1.849,0,0,0-1.8-.887h-.37Z" fill="#fff"/>
        </g>
      </g>
      <g id="_.com" data-name=" .com">
        <g id="Group_3" data-name="Group 3">
          <path id="Path_10" data-name="Path 10" d="M9542.443,4487.924l.348-.527a1.066,1.066,0,0,1,.275-.308.511.511,0,0,1,.6-.006,1.249,1.249,0,0,1,.285.314l.353.5-.364.527a1.2,1.2,0,0,1-.282.315.526.526,0,0,1-.287.083.544.544,0,0,1-.306-.094,1.082,1.082,0,0,1-.279-.3Z" fill="#fff"/>
          <path id="Path_11" data-name="Path 11" d="M9542.883,4481.473l.527-.3a5.419,5.419,0,0,1,.668,1.15,2.772,2.772,0,0,1,.222,1.043,2.372,2.372,0,0,1-.757,1.814,2.745,2.745,0,0,1-1.949.707,2.816,2.816,0,0,1-2.1-.881,3.032,3.032,0,0,1-.854-2.193,2.286,2.286,0,0,1,.218-1.115.7.7,0,0,1,.642-.379.62.62,0,0,1,.435.178.538.538,0,0,1,.193.4,1.264,1.264,0,0,1-.336.613,1.284,1.284,0,0,0-.336.784,1.056,1.056,0,0,0,.467.9,2.109,2.109,0,0,0,1.256.336,2.455,2.455,0,0,0,1.583-.465,1.553,1.553,0,0,0,.574-1.276,1.928,1.928,0,0,0-.112-.632A3.606,3.606,0,0,0,9542.883,4481.473Z" fill="#fff"/>
          <path id="Path_12" data-name="Path 12" d="M9538.638,4477.657a2.863,2.863,0,0,1,.775-2.069,2.6,2.6,0,0,1,1.962-.806,2.8,2.8,0,0,1,2.079.842,2.861,2.861,0,0,1,.835,2.1,2.8,2.8,0,0,1-.785,2.052,2.692,2.692,0,0,1-2.006.8,2.733,2.733,0,0,1-2.032-.852A2.853,2.853,0,0,1,9538.638,4477.657Zm.7.108a1.2,1.2,0,0,0,.491,1.024,2.3,2.3,0,0,0,1.388.363,3.15,3.15,0,0,0,1.728-.414,1.27,1.27,0,0,0,.639-1.113,1.237,1.237,0,0,0-.516-1.051,2.31,2.31,0,0,0-1.412-.384,2.954,2.954,0,0,0-1.692.428,1.322,1.322,0,0,0-.622,1.147Z" fill="#fff"/>
          <path id="Path_13" data-name="Path 13" d="M9538.638,4472.112q.173.021.564.048l.268.016a6.907,6.907,0,0,1-.641-1.091,2.027,2.027,0,0,1-.191-.8,1.533,1.533,0,0,1,.224-.843,1.562,1.562,0,0,1,.679-.565,6.509,6.509,0,0,1-.693-1.123,2.174,2.174,0,0,1-.209-.871,1.413,1.413,0,0,1,.5-1.163,2.225,2.225,0,0,1,1.443-.411h.462l1.347.022.217,0c.119,0,.228.006.325.006a.987.987,0,0,0,.6-.121.617.617,0,0,0,.14-.471v-.134h.451q-.034.428-.048.776t-.018.61c0,.125.006.295.018.508s.025.467.048.76l-.451,0c0-.022.006-.043.008-.064v-.108a.444.444,0,0,0-.217-.439,3.182,3.182,0,0,0-1.092-.11h-.6c-.125,0-.29,0-.5-.008s-.349-.008-.428-.008a1.639,1.639,0,0,0-.976.231.842.842,0,0,0-.312.721,1.6,1.6,0,0,0,.116.543,4.22,4.22,0,0,0,.346.7l2.475.022c.165,0,.326,0,.483.01h.031a.93.93,0,0,0,.537-.1.515.515,0,0,0,.123-.4v-.135h.451q-.034.423-.048.771c-.013.23-.018.436-.018.616,0,.1,0,.247.018.44s.025.432.048.715h-.451c0-.021.007-.044.008-.069s0-.059,0-.1a.414.414,0,0,0-.226-.414,2.862,2.862,0,0,0-1-.108h-1.626a1.632,1.632,0,0,0-.966.224.815.815,0,0,0-.3.7,1.691,1.691,0,0,0,.11.554,4.211,4.211,0,0,0,.331.693l.51.011q1.528.031,2.1.032a2.18,2.18,0,0,0,.9-.1.487.487,0,0,0,.158-.433v-.156h.451q-.034.462-.048.814c-.013.235-.018.434-.018.594s.015.467.043.93c.012.158.02.276.022.355l-.451,0v-.148q0-.663-1.32-.666c-.106,0-.191-.006-.252-.006h-1.6a2.1,2.1,0,0,0-.795.094.357.357,0,0,0-.184.347.586.586,0,0,0,.009.1c0,.043.014.093.023.151l-.418.048c-.05-.257-.112-.536-.185-.833S9538.77,4472.6,9538.638,4472.112Z" fill="#fff"/>
        </g>
      </g>
    </g>
  </g>
</svg>
