<svg id="Group_3454" data-name="Group 3454" xmlns="http://www.w3.org/2000/svg" xmlns:xlink="http://www.w3.org/1999/xlink" width="1440" height="574.329" viewBox="0 0 1440 574.329">
  <defs>
    <linearGradient id="linear-gradient" x1="0.5" y1="1.058" x2="0.5" y2="-0.338" gradientUnits="objectBoundingBox">
      <stop offset="0.193" stop-color="#003200"/>
      <stop offset="0.195" stop-color="#003200"/>
      <stop offset="0.353" stop-color="#004800"/>
      <stop offset="0.526" stop-color="#005700"/>
      <stop offset="0.724" stop-color="#006100"/>
      <stop offset="1" stop-color="#006400"/>
    </linearGradient>
    <clipPath id="clip-path">
      <rect id="Rectangle_518" data-name="Rectangle 518" width="1440" height="574.329" fill="none"/>
    </clipPath>
    <radialGradient id="radial-gradient" cx="0.544" cy="-0.056" r="1.042" gradientTransform="translate(-0.295) scale(1.589 1)" gradientUnits="objectBoundingBox">
      <stop offset="0" stop-color="#21a107"/>
      <stop offset="0.014" stop-color="#1f9b06"/>
      <stop offset="0.122" stop-color="#177204"/>
      <stop offset="0.235" stop-color="#104e03"/>
      <stop offset="0.355" stop-color="#0a3202"/>
      <stop offset="0.483" stop-color="#051b01"/>
      <stop offset="0.621" stop-color="#020c00"/>
      <stop offset="0.779" stop-color="#000200"/>
      <stop offset="1"/>
    </radialGradient>
    <radialGradient id="radial-gradient-2" cx="0.544" cy="-0.056" r="1.042" gradientTransform="translate(-0.295) scale(1.589 1)" gradientUnits="objectBoundingBox">
      <stop offset="0" stop-color="#34ff0b"/>
      <stop offset="0.081" stop-color="#29cb08"/>
      <stop offset="0.168" stop-color="#1f9c06"/>
      <stop offset="0.261" stop-color="#177204"/>
      <stop offset="0.357" stop-color="#104e03"/>
      <stop offset="0.457" stop-color="#0a3202"/>
      <stop offset="0.565" stop-color="#051b01"/>
      <stop offset="0.681" stop-color="#020c00"/>
      <stop offset="0.814" stop-color="#000200"/>
      <stop offset="1"/>
    </radialGradient>
    <radialGradient id="radial-gradient-3" cx="0.582" cy="-0.226" r="0.988" gradientTransform="translate(0.167) scale(0.666 1)" gradientUnits="objectBoundingBox">
      <stop offset="0" stop-color="#80970b"/>
      <stop offset="0.102" stop-color="#607108"/>
      <stop offset="0.217" stop-color="#424e05"/>
      <stop offset="0.339" stop-color="#2a3203"/>
      <stop offset="0.47" stop-color="#171b02"/>
      <stop offset="0.612" stop-color="#0a0c00"/>
      <stop offset="0.774" stop-color="#020200"/>
      <stop offset="1"/>
    </radialGradient>
  </defs>
  <rect id="Rectangle_516" data-name="Rectangle 516" width="1440" height="574.329" fill="url(#linear-gradient)"/>
  <g id="Group_1718" data-name="Group 1718" opacity="0.2" style="mix-blend-mode: overlay;isolation: isolate">
    <g id="Group_1717" data-name="Group 1717" clip-path="url(#clip-path)">
      <path id="Path_3494" data-name="Path 3494" d="M209.2-203,83.431-78.415,444.07,278.823,83.431,636.062,209.2,760.647,695.61,278.823Z" transform="translate(4.52 -8.98)" opacity="0.69" fill="url(#radial-gradient)" style="mix-blend-mode: screen;isolation: isolate"/>
      <path id="Path_3495" data-name="Path 3495" d="M600.4-203,474.628-78.415,835.267,278.823,474.628,636.062,600.4,760.647l486.409-481.824Z" transform="translate(25.712 -8.98)" fill="url(#radial-gradient-2)" style="mix-blend-mode: screen;isolation: isolate"/>
      <g id="Group_1689" data-name="Group 1689" transform="translate(264.714 -211.98)" style="mix-blend-mode: overlay;isolation: isolate">
        <path id="Path_3496" data-name="Path 3496" d="M423.783,760.647,910.192,278.823,423.783-203" transform="translate(-241.757 203)" fill="none" stroke="#fff" stroke-miterlimit="10" stroke-width="0.434"/>
        <path id="Path_3497" data-name="Path 3497" d="M412.991,760.647,899.4,278.823,412.991-203" transform="translate(-242.341 203)" fill="none" stroke="#fff" stroke-miterlimit="10" stroke-width="0.461"/>
        <path id="Path_3498" data-name="Path 3498" d="M402.2,760.647,888.608,278.823,402.2-203" transform="translate(-242.926 203)" fill="none" stroke="#fff" stroke-miterlimit="10" stroke-width="0.488"/>
        <path id="Path_3499" data-name="Path 3499" d="M391.407,760.647,877.816,278.823,391.407-203" transform="translate(-243.511 203)" fill="none" stroke="#fff" stroke-miterlimit="10" stroke-width="0.515"/>
        <path id="Path_3500" data-name="Path 3500" d="M380.615,760.647,867.024,278.823,380.615-203" transform="translate(-244.095 203)" fill="none" stroke="#fff" stroke-miterlimit="10" stroke-width="0.542"/>
        <path id="Path_3501" data-name="Path 3501" d="M369.823,760.647,856.232,278.823,369.823-203" transform="translate(-244.68 203)" fill="none" stroke="#fff" stroke-miterlimit="10" stroke-width="0.569"/>
        <path id="Path_3502" data-name="Path 3502" d="M359.031,760.647,845.44,278.823,359.031-203" transform="translate(-245.265 203)" fill="none" stroke="#fff" stroke-miterlimit="10" stroke-width="0.597"/>
        <path id="Path_3503" data-name="Path 3503" d="M348.239,760.647,834.648,278.823,348.239-203" transform="translate(-245.849 203)" fill="none" stroke="#fff" stroke-miterlimit="10" stroke-width="0.624"/>
        <path id="Path_3504" data-name="Path 3504" d="M337.447,760.647,823.856,278.823,337.447-203" transform="translate(-246.434 203)" fill="none" stroke="#fff" stroke-miterlimit="10" stroke-width="0.651"/>
        <path id="Path_3505" data-name="Path 3505" d="M326.655,760.647,813.064,278.823,326.655-203" transform="translate(-247.019 203)" fill="none" stroke="#fff" stroke-miterlimit="10" stroke-width="0.678"/>
        <path id="Path_3506" data-name="Path 3506" d="M315.863,760.647,802.272,278.823,315.863-203" transform="translate(-247.603 203)" fill="none" stroke="#fff" stroke-miterlimit="10" stroke-width="0.705"/>
        <path id="Path_3507" data-name="Path 3507" d="M305.071,760.647,791.48,278.823,305.071-203" transform="translate(-248.188 203)" fill="none" stroke="#fff" stroke-miterlimit="10" stroke-width="0.732"/>
        <path id="Path_3508" data-name="Path 3508" d="M294.279,760.647,780.688,278.823,294.279-203" transform="translate(-248.772 203)" fill="none" stroke="#fff" stroke-miterlimit="10" stroke-width="0.759"/>
        <path id="Path_3509" data-name="Path 3509" d="M283.487,760.647,769.9,278.823,283.487-203" transform="translate(-249.357 203)" fill="none" stroke="#fff" stroke-miterlimit="10" stroke-width="0.786"/>
        <path id="Path_3510" data-name="Path 3510" d="M272.7,760.647,759.1,278.823,272.7-203" transform="translate(-249.942 203)" fill="none" stroke="#fff" stroke-miterlimit="10" stroke-width="0.813"/>
        <path id="Path_3511" data-name="Path 3511" d="M261.9,760.647,748.312,278.823,261.9-203" transform="translate(-250.526 203)" fill="none" stroke="#fff" stroke-miterlimit="10" stroke-width="0.841"/>
        <path id="Path_3512" data-name="Path 3512" d="M251.111,760.647,737.52,278.823,251.111-203" transform="translate(-251.111 203)" fill="none" stroke="#fff" stroke-miterlimit="10" stroke-width="0.868"/>
      </g>
      <g id="Group_1698" data-name="Group 1698" transform="translate(657.101 523.607)" opacity="0.74" style="mix-blend-mode: overlay;isolation: isolate">
        <g id="Group_1690" data-name="Group 1690">
          <ellipse id="Ellipse_18" data-name="Ellipse 18" cx="3.516" cy="3.483" rx="3.516" ry="3.483" fill="#f7f9fa"/>
          <path id="Path_3513" data-name="Path 3513" d="M655.033,504.909a3.516,3.516,0,1,1-3.517-3.482A3.5,3.5,0,0,1,655.033,504.909Z" transform="translate(-621.997 -501.427)" fill="#f7f9fa"/>
          <ellipse id="Ellipse_19" data-name="Ellipse 19" cx="3.516" cy="3.483" rx="3.516" ry="3.483" transform="translate(52.009)" fill="#f7f9fa"/>
          <ellipse id="Ellipse_20" data-name="Ellipse 20" cx="3.516" cy="3.483" rx="3.516" ry="3.483" transform="translate(78.013)" fill="#f7f9fa"/>
          <path id="Path_3514" data-name="Path 3514" d="M729.036,504.909a3.516,3.516,0,1,1-3.516-3.482A3.5,3.5,0,0,1,729.036,504.909Z" transform="translate(-617.987 -501.427)" fill="#f7f9fa"/>
          <path id="Path_3515" data-name="Path 3515" d="M753.7,504.909a3.516,3.516,0,1,1-3.516-3.482A3.5,3.5,0,0,1,753.7,504.909Z" transform="translate(-616.651 -501.427)" fill="#f7f9fa"/>
        </g>
        <g id="Group_1691" data-name="Group 1691" transform="translate(0 19.056)">
          <path id="Path_3516" data-name="Path 3516" d="M630.365,523.159a3.516,3.516,0,1,1-3.517-3.482A3.5,3.5,0,0,1,630.365,523.159Z" transform="translate(-623.333 -519.676)" fill="#f7f9fa"/>
          <path id="Path_3517" data-name="Path 3517" d="M655.033,523.159a3.516,3.516,0,1,1-3.517-3.482A3.5,3.5,0,0,1,655.033,523.159Z" transform="translate(-621.997 -519.676)" fill="#f7f9fa"/>
          <path id="Path_3518" data-name="Path 3518" d="M679.7,523.159a3.516,3.516,0,1,1-3.517-3.482A3.5,3.5,0,0,1,679.7,523.159Z" transform="translate(-620.66 -519.676)" fill="#f7f9fa"/>
          <path id="Path_3519" data-name="Path 3519" d="M704.368,523.159a3.516,3.516,0,1,1-3.516-3.482A3.5,3.5,0,0,1,704.368,523.159Z" transform="translate(-619.324 -519.676)" fill="#f7f9fa"/>
          <path id="Path_3520" data-name="Path 3520" d="M729.036,523.159a3.516,3.516,0,1,1-3.516-3.482A3.5,3.5,0,0,1,729.036,523.159Z" transform="translate(-617.988 -519.676)" fill="#f7f9fa"/>
          <path id="Path_3521" data-name="Path 3521" d="M753.7,523.159a3.516,3.516,0,1,1-3.516-3.482A3.5,3.5,0,0,1,753.7,523.159Z" transform="translate(-616.651 -519.676)" fill="#f7f9fa"/>
        </g>
        <g id="Group_1692" data-name="Group 1692" transform="translate(0 38.112)">
          <ellipse id="Ellipse_21" data-name="Ellipse 21" cx="3.516" cy="3.483" rx="3.516" ry="3.483" fill="#f7f9fa"/>
          <path id="Path_3522" data-name="Path 3522" d="M655.033,541.408a3.516,3.516,0,1,1-3.517-3.483A3.5,3.5,0,0,1,655.033,541.408Z" transform="translate(-621.997 -537.925)" fill="#f7f9fa"/>
          <ellipse id="Ellipse_22" data-name="Ellipse 22" cx="3.516" cy="3.483" rx="3.516" ry="3.483" transform="translate(52.009)" fill="#f7f9fa"/>
          <ellipse id="Ellipse_23" data-name="Ellipse 23" cx="3.516" cy="3.483" rx="3.516" ry="3.483" transform="translate(78.013)" fill="#f7f9fa"/>
          <path id="Path_3523" data-name="Path 3523" d="M729.036,541.408a3.516,3.516,0,1,1-3.516-3.483A3.5,3.5,0,0,1,729.036,541.408Z" transform="translate(-617.987 -537.925)" fill="#f7f9fa"/>
          <path id="Path_3524" data-name="Path 3524" d="M753.7,541.408a3.516,3.516,0,1,1-3.516-3.483A3.5,3.5,0,0,1,753.7,541.408Z" transform="translate(-616.651 -537.925)" fill="#f7f9fa"/>
        </g>
        <g id="Group_1693" data-name="Group 1693" transform="translate(0 57.169)">
          <ellipse id="Ellipse_24" data-name="Ellipse 24" cx="3.516" cy="3.483" rx="3.516" ry="3.483" fill="#f7f9fa"/>
          <path id="Path_3525" data-name="Path 3525" d="M655.033,559.656a3.516,3.516,0,1,1-3.517-3.483A3.5,3.5,0,0,1,655.033,559.656Z" transform="translate(-621.997 -556.174)" fill="#f7f9fa"/>
          <ellipse id="Ellipse_25" data-name="Ellipse 25" cx="3.516" cy="3.483" rx="3.516" ry="3.483" transform="translate(52.009)" fill="#f7f9fa"/>
          <ellipse id="Ellipse_26" data-name="Ellipse 26" cx="3.516" cy="3.483" rx="3.516" ry="3.483" transform="translate(78.013)" fill="#f7f9fa"/>
          <path id="Path_3526" data-name="Path 3526" d="M729.036,559.656a3.516,3.516,0,1,1-3.516-3.483A3.5,3.5,0,0,1,729.036,559.656Z" transform="translate(-617.987 -556.174)" fill="#f7f9fa"/>
          <path id="Path_3527" data-name="Path 3527" d="M753.7,559.656a3.516,3.516,0,1,1-3.516-3.483A3.5,3.5,0,0,1,753.7,559.656Z" transform="translate(-616.651 -556.174)" fill="#f7f9fa"/>
        </g>
        <g id="Group_1694" data-name="Group 1694" transform="translate(0 76.225)">
          <path id="Path_3528" data-name="Path 3528" d="M630.365,577.906a3.516,3.516,0,1,1-3.517-3.483A3.5,3.5,0,0,1,630.365,577.906Z" transform="translate(-623.333 -574.423)" fill="#f7f9fa"/>
          <path id="Path_3529" data-name="Path 3529" d="M655.033,577.906a3.516,3.516,0,1,1-3.517-3.483A3.5,3.5,0,0,1,655.033,577.906Z" transform="translate(-621.997 -574.423)" fill="#f7f9fa"/>
          <path id="Path_3530" data-name="Path 3530" d="M679.7,577.906a3.516,3.516,0,1,1-3.517-3.483A3.5,3.5,0,0,1,679.7,577.906Z" transform="translate(-620.66 -574.423)" fill="#f7f9fa"/>
          <path id="Path_3531" data-name="Path 3531" d="M704.368,577.906a3.516,3.516,0,1,1-3.516-3.483A3.5,3.5,0,0,1,704.368,577.906Z" transform="translate(-619.324 -574.423)" fill="#f7f9fa"/>
          <path id="Path_3532" data-name="Path 3532" d="M729.036,577.906a3.516,3.516,0,1,1-3.516-3.483A3.5,3.5,0,0,1,729.036,577.906Z" transform="translate(-617.988 -574.423)" fill="#f7f9fa"/>
          <path id="Path_3533" data-name="Path 3533" d="M753.7,577.906a3.516,3.516,0,1,1-3.516-3.483A3.5,3.5,0,0,1,753.7,577.906Z" transform="translate(-616.651 -574.423)" fill="#f7f9fa"/>
        </g>
        <g id="Group_1695" data-name="Group 1695" transform="translate(0 95.281)">
          <ellipse id="Ellipse_27" data-name="Ellipse 27" cx="3.516" cy="3.483" rx="3.516" ry="3.483" fill="#f7f9fa"/>
          <path id="Path_3534" data-name="Path 3534" d="M655.033,596.155a3.516,3.516,0,1,1-3.517-3.483A3.5,3.5,0,0,1,655.033,596.155Z" transform="translate(-621.997 -592.672)" fill="#f7f9fa"/>
          <ellipse id="Ellipse_28" data-name="Ellipse 28" cx="3.516" cy="3.483" rx="3.516" ry="3.483" transform="translate(52.009 0)" fill="#f7f9fa"/>
          <ellipse id="Ellipse_29" data-name="Ellipse 29" cx="3.516" cy="3.483" rx="3.516" ry="3.483" transform="translate(78.013)" fill="#f7f9fa"/>
          <path id="Path_3535" data-name="Path 3535" d="M729.036,596.155a3.516,3.516,0,1,1-3.516-3.483A3.5,3.5,0,0,1,729.036,596.155Z" transform="translate(-617.987 -592.672)" fill="#f7f9fa"/>
          <path id="Path_3536" data-name="Path 3536" d="M753.7,596.155a3.516,3.516,0,1,1-3.516-3.483A3.5,3.5,0,0,1,753.7,596.155Z" transform="translate(-616.651 -592.672)" fill="#f7f9fa"/>
        </g>
        <g id="Group_1696" data-name="Group 1696" transform="translate(0 114.338)">
          <path id="Path_3537" data-name="Path 3537" d="M630.365,614.4a3.516,3.516,0,1,1-3.517-3.482A3.5,3.5,0,0,1,630.365,614.4Z" transform="translate(-623.333 -610.921)" fill="#f7f9fa"/>
          <path id="Path_3538" data-name="Path 3538" d="M655.033,614.4a3.516,3.516,0,1,1-3.517-3.482A3.5,3.5,0,0,1,655.033,614.4Z" transform="translate(-621.997 -610.921)" fill="#f7f9fa"/>
          <path id="Path_3539" data-name="Path 3539" d="M679.7,614.4a3.516,3.516,0,1,1-3.517-3.482A3.5,3.5,0,0,1,679.7,614.4Z" transform="translate(-620.66 -610.921)" fill="#f7f9fa"/>
          <path id="Path_3540" data-name="Path 3540" d="M704.368,614.4a3.516,3.516,0,1,1-3.516-3.482A3.5,3.5,0,0,1,704.368,614.4Z" transform="translate(-619.324 -610.921)" fill="#f7f9fa"/>
          <path id="Path_3541" data-name="Path 3541" d="M729.036,614.4a3.516,3.516,0,1,1-3.516-3.482A3.5,3.5,0,0,1,729.036,614.4Z" transform="translate(-617.988 -610.921)" fill="#f7f9fa"/>
          <path id="Path_3542" data-name="Path 3542" d="M753.7,614.4a3.516,3.516,0,1,1-3.516-3.482A3.5,3.5,0,0,1,753.7,614.4Z" transform="translate(-616.651 -610.921)" fill="#f7f9fa"/>
        </g>
        <g id="Group_1697" data-name="Group 1697" transform="translate(0 133.394)">
          <path id="Path_3543" data-name="Path 3543" d="M630.365,632.653a3.516,3.516,0,1,1-3.517-3.483A3.5,3.5,0,0,1,630.365,632.653Z" transform="translate(-623.333 -629.17)" fill="#f7f9fa"/>
          <path id="Path_3544" data-name="Path 3544" d="M655.033,632.653a3.516,3.516,0,1,1-3.517-3.483A3.5,3.5,0,0,1,655.033,632.653Z" transform="translate(-621.997 -629.17)" fill="#f7f9fa"/>
          <path id="Path_3545" data-name="Path 3545" d="M679.7,632.653a3.516,3.516,0,1,1-3.517-3.483A3.5,3.5,0,0,1,679.7,632.653Z" transform="translate(-620.66 -629.17)" fill="#f7f9fa"/>
          <path id="Path_3546" data-name="Path 3546" d="M704.368,632.653a3.516,3.516,0,1,1-3.516-3.483A3.5,3.5,0,0,1,704.368,632.653Z" transform="translate(-619.324 -629.17)" fill="#f7f9fa"/>
          <path id="Path_3547" data-name="Path 3547" d="M729.036,632.653a3.516,3.516,0,1,1-3.516-3.483A3.5,3.5,0,0,1,729.036,632.653Z" transform="translate(-617.988 -629.17)" fill="#f7f9fa"/>
          <path id="Path_3548" data-name="Path 3548" d="M753.7,632.653a3.516,3.516,0,1,1-3.516-3.483A3.5,3.5,0,0,1,753.7,632.653Z" transform="translate(-616.651 -629.17)" fill="#f7f9fa"/>
        </g>
      </g>
      <g id="Group_1716" data-name="Group 1716" transform="translate(891.473 186.337)" opacity="0.42" style="mix-blend-mode: overlay;isolation: isolate">
        <g id="Group_1708" data-name="Group 1708">
          <ellipse id="Ellipse_60" data-name="Ellipse 60" cx="2.831" cy="2.804" rx="2.831" ry="2.804" transform="translate(0 0)" fill="#f7f9fa"/>
          <ellipse id="Ellipse_61" data-name="Ellipse 61" cx="2.831" cy="2.804" rx="2.831" ry="2.804" transform="translate(20.939 0)" fill="#f7f9fa"/>
          <ellipse id="Ellipse_62" data-name="Ellipse 62" cx="2.831" cy="2.804" rx="2.831" ry="2.804" transform="translate(41.877 0)" fill="#f7f9fa"/>
          <path id="Path_3567" data-name="Path 3567" d="M910.911,181.249a2.831,2.831,0,1,1-2.831-2.8A2.818,2.818,0,0,1,910.911,181.249Z" transform="translate(-842.433 -178.444)" fill="#f7f9fa"/>
          <ellipse id="Ellipse_63" data-name="Ellipse 63" cx="2.831" cy="2.804" rx="2.831" ry="2.804" transform="translate(83.755 0)" fill="#f7f9fa"/>
          <ellipse id="Ellipse_64" data-name="Ellipse 64" cx="2.831" cy="2.804" rx="2.831" ry="2.804" transform="translate(104.693 0)" fill="#f7f9fa"/>
        </g>
        <g id="Group_1709" data-name="Group 1709" transform="translate(0 15.345)">
          <ellipse id="Ellipse_65" data-name="Ellipse 65" cx="2.831" cy="2.804" rx="2.831" ry="2.804" transform="translate(0 0)" fill="#f7f9fa"/>
          <ellipse id="Ellipse_66" data-name="Ellipse 66" cx="2.831" cy="2.804" rx="2.831" ry="2.804" transform="translate(20.939)" fill="#f7f9fa"/>
          <ellipse id="Ellipse_67" data-name="Ellipse 67" cx="2.831" cy="2.804" rx="2.831" ry="2.804" transform="translate(41.877 0)" fill="#f7f9fa"/>
          <path id="Path_3568" data-name="Path 3568" d="M910.911,195.943a2.831,2.831,0,1,1-2.831-2.8A2.818,2.818,0,0,1,910.911,195.943Z" transform="translate(-842.433 -193.139)" fill="#f7f9fa"/>
          <ellipse id="Ellipse_68" data-name="Ellipse 68" cx="2.831" cy="2.804" rx="2.831" ry="2.804" transform="translate(83.755 0)" fill="#f7f9fa"/>
          <ellipse id="Ellipse_69" data-name="Ellipse 69" cx="2.831" cy="2.804" rx="2.831" ry="2.804" transform="translate(104.693 0)" fill="#f7f9fa"/>
        </g>
        <g id="Group_1710" data-name="Group 1710" transform="translate(0 30.689)">
          <ellipse id="Ellipse_70" data-name="Ellipse 70" cx="2.831" cy="2.804" rx="2.831" ry="2.804" fill="#f7f9fa"/>
          <ellipse id="Ellipse_71" data-name="Ellipse 71" cx="2.831" cy="2.804" rx="2.831" ry="2.804" transform="translate(20.939)" fill="#f7f9fa"/>
          <ellipse id="Ellipse_72" data-name="Ellipse 72" cx="2.831" cy="2.804" rx="2.831" ry="2.804" transform="translate(41.877 0)" fill="#f7f9fa"/>
          <path id="Path_3569" data-name="Path 3569" d="M910.911,210.637a2.831,2.831,0,1,1-2.831-2.8A2.817,2.817,0,0,1,910.911,210.637Z" transform="translate(-842.433 -207.833)" fill="#f7f9fa"/>
          <ellipse id="Ellipse_73" data-name="Ellipse 73" cx="2.831" cy="2.804" rx="2.831" ry="2.804" transform="translate(83.755)" fill="#f7f9fa"/>
          <ellipse id="Ellipse_74" data-name="Ellipse 74" cx="2.831" cy="2.804" rx="2.831" ry="2.804" transform="translate(104.693)" fill="#f7f9fa"/>
        </g>
        <g id="Group_1711" data-name="Group 1711" transform="translate(0 46.033)">
          <ellipse id="Ellipse_75" data-name="Ellipse 75" cx="2.831" cy="2.804" rx="2.831" ry="2.804" fill="#f7f9fa"/>
          <ellipse id="Ellipse_76" data-name="Ellipse 76" cx="2.831" cy="2.804" rx="2.831" ry="2.804" transform="translate(20.939)" fill="#f7f9fa"/>
          <ellipse id="Ellipse_77" data-name="Ellipse 77" cx="2.831" cy="2.804" rx="2.831" ry="2.804" transform="translate(41.877 0)" fill="#f7f9fa"/>
          <path id="Path_3570" data-name="Path 3570" d="M910.911,225.331a2.831,2.831,0,1,1-2.831-2.8A2.817,2.817,0,0,1,910.911,225.331Z" transform="translate(-842.433 -222.527)" fill="#f7f9fa"/>
          <ellipse id="Ellipse_78" data-name="Ellipse 78" cx="2.831" cy="2.804" rx="2.831" ry="2.804" transform="translate(83.755)" fill="#f7f9fa"/>
          <ellipse id="Ellipse_79" data-name="Ellipse 79" cx="2.831" cy="2.804" rx="2.831" ry="2.804" transform="translate(104.693)" fill="#f7f9fa"/>
        </g>
        <g id="Group_1712" data-name="Group 1712" transform="translate(0 61.377)">
          <ellipse id="Ellipse_80" data-name="Ellipse 80" cx="2.831" cy="2.804" rx="2.831" ry="2.804" transform="translate(0 0)" fill="#f7f9fa"/>
          <ellipse id="Ellipse_81" data-name="Ellipse 81" cx="2.831" cy="2.804" rx="2.831" ry="2.804" transform="translate(20.939)" fill="#f7f9fa"/>
          <ellipse id="Ellipse_82" data-name="Ellipse 82" cx="2.831" cy="2.804" rx="2.831" ry="2.804" transform="translate(41.877 0)" fill="#f7f9fa"/>
          <path id="Path_3571" data-name="Path 3571" d="M910.911,240.026a2.831,2.831,0,1,1-2.831-2.8A2.817,2.817,0,0,1,910.911,240.026Z" transform="translate(-842.433 -237.221)" fill="#f7f9fa"/>
          <ellipse id="Ellipse_83" data-name="Ellipse 83" cx="2.831" cy="2.804" rx="2.831" ry="2.804" transform="translate(83.755 0)" fill="#f7f9fa"/>
          <ellipse id="Ellipse_84" data-name="Ellipse 84" cx="2.831" cy="2.804" rx="2.831" ry="2.804" transform="translate(104.693 0)" fill="#f7f9fa"/>
        </g>
        <g id="Group_1713" data-name="Group 1713" transform="translate(0 76.721)">
          <ellipse id="Ellipse_85" data-name="Ellipse 85" cx="2.831" cy="2.804" rx="2.831" ry="2.804" transform="translate(0 0)" fill="#f7f9fa"/>
          <ellipse id="Ellipse_86" data-name="Ellipse 86" cx="2.831" cy="2.804" rx="2.831" ry="2.804" transform="translate(20.939 0)" fill="#f7f9fa"/>
          <ellipse id="Ellipse_87" data-name="Ellipse 87" cx="2.831" cy="2.804" rx="2.831" ry="2.804" transform="translate(41.877 0)" fill="#f7f9fa"/>
          <path id="Path_3572" data-name="Path 3572" d="M910.911,254.72a2.831,2.831,0,1,1-2.831-2.8A2.817,2.817,0,0,1,910.911,254.72Z" transform="translate(-842.433 -251.915)" fill="#f7f9fa"/>
          <ellipse id="Ellipse_88" data-name="Ellipse 88" cx="2.831" cy="2.804" rx="2.831" ry="2.804" transform="translate(83.755 0)" fill="#f7f9fa"/>
          <ellipse id="Ellipse_89" data-name="Ellipse 89" cx="2.831" cy="2.804" rx="2.831" ry="2.804" transform="translate(104.693 0)" fill="#f7f9fa"/>
        </g>
        <g id="Group_1714" data-name="Group 1714" transform="translate(0 92.065)">
          <ellipse id="Ellipse_90" data-name="Ellipse 90" cx="2.831" cy="2.804" rx="2.831" ry="2.804" transform="translate(0 0)" fill="#f7f9fa"/>
          <ellipse id="Ellipse_91" data-name="Ellipse 91" cx="2.831" cy="2.804" rx="2.831" ry="2.804" transform="translate(20.939 0)" fill="#f7f9fa"/>
          <ellipse id="Ellipse_92" data-name="Ellipse 92" cx="2.831" cy="2.804" rx="2.831" ry="2.804" transform="translate(41.877 0)" fill="#f7f9fa"/>
          <path id="Path_3573" data-name="Path 3573" d="M910.911,269.414a2.831,2.831,0,1,1-2.831-2.8A2.817,2.817,0,0,1,910.911,269.414Z" transform="translate(-842.433 -266.609)" fill="#f7f9fa"/>
          <ellipse id="Ellipse_93" data-name="Ellipse 93" cx="2.831" cy="2.804" rx="2.831" ry="2.804" transform="translate(83.755 0)" fill="#f7f9fa"/>
          <ellipse id="Ellipse_94" data-name="Ellipse 94" cx="2.831" cy="2.804" rx="2.831" ry="2.804" transform="translate(104.693 0)" fill="#f7f9fa"/>
        </g>
        <g id="Group_1715" data-name="Group 1715" transform="translate(0 107.409)">
          <ellipse id="Ellipse_95" data-name="Ellipse 95" cx="2.831" cy="2.804" rx="2.831" ry="2.804" transform="translate(0 0)" fill="#f7f9fa"/>
          <ellipse id="Ellipse_96" data-name="Ellipse 96" cx="2.831" cy="2.804" rx="2.831" ry="2.804" transform="translate(20.939 0)" fill="#f7f9fa"/>
          <ellipse id="Ellipse_97" data-name="Ellipse 97" cx="2.831" cy="2.804" rx="2.831" ry="2.804" transform="translate(41.877 0)" fill="#f7f9fa"/>
          <path id="Path_3574" data-name="Path 3574" d="M910.911,284.108a2.831,2.831,0,1,1-2.831-2.8A2.818,2.818,0,0,1,910.911,284.108Z" transform="translate(-842.433 -281.303)" fill="#f7f9fa"/>
          <ellipse id="Ellipse_98" data-name="Ellipse 98" cx="2.831" cy="2.804" rx="2.831" ry="2.804" transform="translate(83.755 0)" fill="#f7f9fa"/>
          <ellipse id="Ellipse_99" data-name="Ellipse 99" cx="2.831" cy="2.804" rx="2.831" ry="2.804" transform="translate(104.693 0)" fill="#f7f9fa"/>
        </g>
      </g>
      <path id="Path_3575" data-name="Path 3575" d="M471.015,766.017H16.988l904.6-896.073h454.027Z" transform="translate(0.92 -5.753)" fill="url(#radial-gradient-3)" style="mix-blend-mode: screen;isolation: isolate"/>
      <path id="Path_3576" data-name="Path 3576" d="M573.678,766.017H119.652l904.6-896.073h454.027Z" transform="translate(6.482 -5.753)" fill="url(#radial-gradient-3)" style="mix-blend-mode: screen;isolation: isolate"/>
      <rect id="Rectangle_517" data-name="Rectangle 517" width="1128.306" height="698.543" transform="translate(-150.184 -73.765)" fill="none"/>
    </g>
  </g>
</svg>
